<svg xmlns="http://www.w3.org/2000/svg" width="1120" height="760" viewBox="0 0 1120 760">
  <rect width="100%" height="100%" fill="#fbfaf7"/>
  <text x="62" y="34" font-family="Arial" font-size="22" fill="#222">Sim 7: one simulated life</text>
  <text x="62" y="58" font-family="Arial" font-size="12" fill="#444">Formation events, adult capture, therapy descent, structural melt, and transfer probe. Panels below use identical transfer axes.</text>
  <text x="76" y="96" font-family="Arial" font-size="13" fill="#222">Act I formation and stratification</text>
  <text x="76" y="118" font-family="Arial" font-size="11" fill="#444">cause 1: early_acute_cause, t=8 | cause 2: reactive_flood_spawned_cause, t=72 | cause 3: slow_accumulated_proactive_cause, t=150</text>
  <text x="76" y="158" font-family="Arial" font-size="13" fill="#222">Act II adult baseline: capture index high under low depth</text>
  <text x="76" y="188" font-family="Arial" font-size="13" fill="#222">Act III therapy: computed access, trust, depth, and BMR checks</text>
  <line x1="76.0" y1="344" x2="766.0" y2="344" stroke="#222" stroke-width="1.4"/>
  <line x1="76.0" y1="214" x2="76.0" y2="344" stroke="#222" stroke-width="1.4"/>
  <polyline points="76.0,322.1 90.1,322.1 104.2,322.1 118.2,322.1 132.3,322.1 146.4,322.1 160.5,322.1 174.6,322.1 188.7,322.1 202.7,322.1 216.8,322.1 230.9,322.1 245.0,322.1 259.1,322.1 273.1,322.1 287.2,322.1 301.3,322.1 315.4,322.1 329.5,322.1 343.6,322.1 357.6,322.1 371.7,322.1 385.8,322.1 399.9,288.4 414.0,263.9 428.0,245.3 442.1,231.3 456.2,220.3 470.3,214.0 484.4,214.0 498.4,214.0 512.5,214.0 526.6,214.0 540.7,214.0 554.8,214.0 568.9,214.0 582.9,214.0 597.0,214.0 611.1,214.0 625.2,214.0 639.3,214.0 653.3,214.0 667.4,214.0 681.5,214.0 695.6,214.0 709.7,214.0 723.8,214.0 737.8,214.0 751.9,214.0 766.0,214.0" fill="none" stroke="#6f4e7c" stroke-width="3"/>
  <polyline points="76.0,307.3 90.1,298.2 104.2,290.8 118.2,284.4 132.3,278.9 146.4,274.3 160.5,270.4 174.6,295.4 188.7,292.3 202.7,289.3 216.8,286.6 230.9,284.2 245.0,281.9 259.1,279.7 273.1,277.6 287.2,275.7 301.3,273.9 315.4,272.3 329.5,270.6 343.6,269.1 357.6,267.7 371.7,266.3 385.8,266.3 399.9,266.3 414.0,266.3 428.0,266.3 442.1,266.3 456.2,266.3 470.3,266.3 484.4,266.3 498.4,266.3 512.5,266.3 526.6,266.3 540.7,266.3 554.8,266.3 568.9,266.3 582.9,266.3 597.0,266.3 611.1,266.3 625.2,266.3 639.3,266.3 653.3,266.3 667.4,266.3 681.5,266.3 695.6,266.3 709.7,266.3 723.8,266.3 737.8,266.3 751.9,266.3 766.0,266.3" fill="none" stroke="#a86128" stroke-width="3"/>
  <polyline points="76.0,327.3 90.1,327.3 104.2,327.3 118.2,327.3 132.3,327.3 146.4,327.3 160.5,327.3 174.6,327.3 188.7,327.3 202.7,327.3 216.8,327.3 230.9,327.3 245.0,327.3 259.1,327.3 273.1,327.3 287.2,327.3 301.3,327.3 315.4,327.3 329.5,327.3 343.6,327.3 357.6,327.3 371.7,327.3 385.8,308.5 399.9,294.7 414.0,284.3 428.0,276.5 442.1,270.3 456.2,265.3 470.3,265.3 484.4,265.3 498.4,265.3 512.5,265.3 526.6,265.3 540.7,265.3 554.8,265.3 568.9,265.3 582.9,265.3 597.0,265.3 611.1,265.3 625.2,265.3 639.3,265.3 653.3,265.3 667.4,265.3 681.5,265.3 695.6,265.3 709.7,265.3 723.8,265.3 737.8,265.3 751.9,265.3 766.0,265.3" fill="none" stroke="#2f7d59" stroke-width="3"/>
  <polyline points="76.0,244.6 90.1,240.3 104.2,239.9 118.2,236.2 132.3,233.7 146.4,236.6 160.5,238.3 174.6,239.5 188.7,236.5 202.7,234.2 216.8,236.9 230.9,238.6 245.0,239.7 259.1,236.8 273.1,234.4 287.2,237.1 301.3,238.7 315.4,239.9 329.5,236.9 343.6,234.6 357.6,237.2 371.7,238.8 385.8,239.9 399.9,236.9 414.0,234.6 428.0,237.3 442.1,238.8 456.2,239.9 470.3,236.9 484.4,234.6 498.4,237.3 512.5,238.8 526.6,239.9 540.7,237.0 554.8,234.7 568.9,237.3 582.9,238.9 597.0,239.9 611.1,237.0 625.2,234.7 639.3,237.3 653.3,238.9 667.4,239.9 681.5,237.0 695.6,234.7 709.7,237.3 723.8,238.9 737.8,239.9 751.9,237.0 766.0,234.7" fill="none" stroke="#2c6fbb" stroke-width="2.5"/>
  <text x="790" y="220" font-family="Arial" font-size="12" fill="#6f4e7c">computed access to earliest cause</text>
  <text x="790" y="242" font-family="Arial" font-size="12" fill="#a86128">outer trust</text>
  <text x="790" y="264" font-family="Arial" font-size="12" fill="#2f7d59">middle trust</text>
  <text x="790" y="286" font-family="Arial" font-size="12" fill="#2c6fbb">inferred depth</text>
  <text x="76" y="382" font-family="Arial" font-size="13" fill="#222">Act IV transfer after melt</text>
  <line x1="820" y1="575" x2="1030" y2="575" stroke="#222" stroke-width="1.4"/>
  <line x1="820" y1="455" x2="820" y2="575" stroke="#222" stroke-width="1.4"/>
  <polyline points="1030.0,455.04016923243796 988.0,460.60534217100223 946.0,566.2911928300647 904.0,574.9574020220707 862.0,574.9995562354661 1030.0,574.943917186035 988.0,574.9929648121928 946.0,574.9989482043468 904.0,574.9998086585829 862.0,574.9999573191727" fill="none" stroke="#b33f62" stroke-width="3"/>
  <text x="840" y="602" font-family="Arial" font-size="12" fill="#444">root coupling</text>
  <text x="760" y="530" font-family="Arial" font-size="12" fill="#444" transform="rotate(-90 760 530)">contact</text>
  <text x="76" y="642" font-family="Arial" font-size="14" fill="#222">H2-life control: flat transfer rate 1.0; no-cascade panel uses the same therapy/session axes.</text>
  <text x="76" y="676" font-family="Arial" font-size="14" fill="#222">Resilient-world control: no frozen stack rate 1.0; transfer panel stays baseline-flat on the same cue axis.</text>
</svg>
