<svg xmlns="http://www.w3.org/2000/svg" width="920" height="420" viewBox="0 0 920 420">
  <rect width="920" height="420" fill="#fbfaf7"/>
  <rect x="232" y="45" width="175" height="315" fill="#f0d9d2" opacity="0.55"/>
  <line x1="60" y1="350" x2="860" y2="350" stroke="#222" stroke-width="2"/>
  <line x1="60" y1="70" x2="60" y2="350" stroke="#222" stroke-width="2"/>
  <polyline points="60.0,105.25033443925932 65.03144654088051,105.25033443925932 70.062893081761,105.25033443925932 75.09433962264151,105.25033443925932 80.12578616352201,105.25033443925932 85.15723270440252,105.25033443925932 90.18867924528303,105.25033443925932 95.22012578616352,105.25033443925932 100.25157232704403,105.25033443925932 105.28301886792454,105.25033443925932 110.31446540880503,105.25033443925932 115.34591194968553,105.25033443925932 120.37735849056604,105.25033443925932 125.40880503144653,105.25033443925932 130.44025157232704,105.25033443925932 135.47169811320754,105.25033443925932 140.50314465408806,105.25033443925932 145.53459119496856,105.25033443925932 150.56603773584908,105.25033443925932 155.59748427672957,105.25033443925932 160.62893081761007,105.25033443925932 165.66037735849056,105.25033443925932 170.69182389937106,105.25033443925932 175.72327044025155,105.25033443925932 180.75471698113208,105.25033443925932 185.78616352201257,105.25033443925932 190.81761006289307,105.25033443925932 195.8490566037736,105.25033443925932 200.88050314465409,105.25033443925932 205.91194968553458,105.25033443925932 210.9433962264151,105.25033443925932 215.9748427672956,105.25033443925932 221.00628930817612,105.25033443925932 226.03773584905662,105.25033443925932 231.0691823899371,105.25033443925932 236.1006289308176,105.25033443925932 241.13207547169813,105.25033443925932 246.16352201257862,105.25033443925932 251.19496855345912,105.25033443925932 256.2264150943396,105.25033443925932 261.25786163522014,105.25033443925932 266.28930817610063,105.25033443925932 271.3207547169811,105.25033443925932 276.3522012578616,105.25033443925932 281.3836477987421,105.25033443925932 286.41509433962267,105.25033443925932 291.4465408805031,105.25033443925932 296.47798742138366,105.25033443925932 301.50943396226415,105.25033443925932 306.54088050314465,105.25033443925932 311.57232704402514,105.25033443925932 316.60377358490564,105.25033443925932 321.63522012578613,105.25033443925932 326.66666666666663,105.25033443925932 331.6981132075472,105.25033443925932 336.7295597484277,105.25033443925932 341.76100628930817,105.25033443925932 346.79245283018867,105.25033443925932 351.82389937106916,105.25033443925932 356.85534591194966,105.25033443925932 361.8867924528302,105.25033443925932 366.9182389937107,105.25033443925932 371.9496855345912,105.25033443925932 376.9811320754717,105.25033443925932 382.01257861635224,105.25033443925932 387.04402515723274,105.25033443925932 392.07547169811323,105.25033443925932 397.1069182389937,105.25033443925932 402.1383647798742,105.25033443925932 407.1698113207547,105.25033443925932 412.2012578616352,105.25033443925932 417.2327044025157,105.25033443925932 422.26415094339626,105.25033443925932 427.29559748427675,105.25033443925932 432.32704402515725,105.25033443925932 437.35849056603774,105.25033443925932 442.38993710691824,105.25033443925932 447.42138364779873,105.25033443925932 452.45283018867923,105.25033443925932 457.4842767295597,105.25033443925932 462.5157232704403,105.25033443925932 467.54716981132077,105.25033443925932 472.57861635220127,105.25033443925932 477.61006289308176,105.25033443925932 482.64150943396226,105.25033443925932 487.67295597484275,105.25033443925932 492.70440251572325,105.25033443925932 497.73584905660374,105.25033443925932 502.7672955974843,105.25033443925932 507.7987421383648,105.25033443925932 512.8301886792453,105.25033443925932 517.8616352201258,105.25033443925932 522.8930817610062,105.25033443925932 527.9245283018868,105.25033443925932 532.9559748427673,105.25033443925932 537.9874213836478,105.25033443925932 543.0188679245283,105.25033443925932 548.0503144654087,105.25033443925932 553.0817610062893,105.25033443925932 558.1132075471698,105.25033443925932 563.1446540880503,105.25033443925932 568.1761006289307,105.25033443925932 573.2075471698113,105.25033443925932 578.2389937106918,105.25033443925932 583.2704402515723,105.25033443925932 588.3018867924528,105.25033443925932 593.3333333333333,105.25033443925932 598.3647798742138,105.25033443925932 603.3962264150944,105.25033443925932 608.4276729559748,105.25033443925932 613.4591194968554,105.25033443925932 618.4905660377358,105.25033443925932 623.5220125786163,105.25033443925932 628.5534591194968,105.25033443925932 633.5849056603773,105.25033443925932 638.6163522012578,105.25033443925932 643.6477987421383,105.25033443925932 648.6792452830189,105.25033443925932 653.7106918238993,105.25033443925932 658.7421383647799,105.25033443925932 663.7735849056604,105.25033443925932 668.805031446541,105.25033443925932 673.8364779874214,105.25033443925932 678.867924528302,105.25033443925932 683.8993710691824,105.25033443925932 688.930817610063,105.25033443925932 693.9622641509434,105.25033443925932 698.9937106918239,105.25033443925932 704.0251572327045,105.25033443925932 709.0566037735849,105.25033443925932 714.0880503144655,105.25033443925932 719.1194968553459,105.25033443925932 724.1509433962265,105.25033443925932 729.1823899371069,105.25033443925932 734.2138364779875,105.25033443925932 739.2452830188679,105.25033443925932 744.2767295597484,105.25033443925932 749.308176100629,105.25033443925932 754.3396226415094,105.25033443925932 759.37106918239,105.25033443925932 764.4025157232704,105.25033443925932 769.433962264151,105.25033443925932 774.4654088050314,105.25033443925932 779.496855345912,105.25033443925932 784.5283018867925,105.25033443925932 789.559748427673,105.25033443925932 794.5911949685535,105.25033443925932 799.622641509434,105.25033443925932 804.6540880503145,105.25033443925932 809.6855345911949,105.25033443925932 814.7169811320755,105.25033443925932 819.748427672956,105.25033443925932 824.7798742138365,105.25033443925932 829.811320754717,105.25033443925932 834.8427672955975,105.25033443925932 839.874213836478,105.25033443925932 844.9056603773585,105.25033443925932 849.937106918239,105.25033443925932 854.9685534591194,105.25033443925932 860.0,105.25033443925932" fill="none" stroke="#1f6f78" stroke-width="4"/>
  <polyline points="60.0,309.76181323295594 65.03144654088051,309.78605908768884 70.062893081761,309.64484485140537 75.09433962264151,308.9082699472693 80.12578616352201,309.3751322949485 85.15723270440252,309.23776071505347 90.18867924528303,309.3121484469048 95.22012578616352,308.46803247253945 100.25157232704403,309.50555566751115 105.28301886792454,309.9034528987671 110.31446540880503,308.4989709471643 115.34591194968553,308.7507018868694 120.37735849056604,309.9938466788117 125.40880503144653,310.68324476207874 130.44025157232704,309.5950002745474 135.47169811320754,308.8119716179133 140.50314465408806,309.28616170033564 145.53459119496856,309.9235533079903 150.56603773584908,309.86598903193794 155.59748427672957,308.18515540091136 160.62893081761007,309.24219987230686 165.66037735849056,310.3256081344843 170.69182389937106,308.88363527428993 175.72327044025155,309.431112269273 180.75471698113208,309.74890344113123 185.78616352201257,309.7506410205276 190.81761006289307,309.7257999627 195.8490566037736,309.7497135299897 200.88050314465409,308.5598258242659 205.91194968553458,309.643258548425 210.9433962264151,309.5581093764477 215.9748427672956,308.4151034850865 221.00628930817612,309.6755623905104 226.03773584905662,307.79822412479734 231.0691823899371,231.87434202057375 236.1006289308176,230.48017846674807 241.13207547169813,231.19103917007902 246.16352201257862,231.73580067108236 251.19496855345912,232.52282445628325 256.2264150943396,231.024274417161 261.25786163522014,231.6524617857536 266.28930817610063,230.33459471645142 271.3207547169811,230.25255013469234 276.3522012578616,231.23753482840866 281.3836477987421,231.02024323758496 286.41509433962267,232.01382797286965 291.4465408805031,231.52485591364803 296.47798742138366,232.08234111806303 301.50943396226415,230.4943433161834 306.54088050314465,231.3400011103713 311.57232704402514,230.42456581375785 316.60377358490564,230.49602370295875 321.63522012578613,230.68978515012975 326.66666666666663,230.60396379133635 331.6981132075472,273.79091512311305 336.7295597484277,272.63940435571726 341.76100628930817,272.3882776107831 346.79245283018867,272.4508564286903 351.82389937106916,271.9006543431735 356.85534591194966,273.3206349238066 361.8867924528302,272.41338489782555 366.9182389937107,272.33907146260714 371.9496855345912,274.14227577103054 376.9811320754717,273.0105541969859 382.01257861635224,272.8219883507936 387.04402515723274,273.3093705143707 392.07547169811323,272.5778197949104 397.1069182389937,272.71272532424126 402.1383647798742,309.20515871350074 407.1698113207547,309.6052874488902 412.2012578616352,309.2446431839516 417.2327044025157,309.4032113778142 422.26415094339626,308.81068025719645 427.29559748427675,308.95201809134267 432.32704402515725,309.81824428033804 437.35849056603774,310.06930633457296 442.38993710691824,309.1977292538129 447.42138364779873,309.5253711120874 452.45283018867923,309.6810346184351 457.4842767295597,309.6620829212156 462.5157232704403,309.403028496389 467.54716981132077,310.15632942778944 472.57861635220127,309.84168246658066 477.61006289308176,308.63913643412684 482.64150943396226,308.2189553364664 487.67295597484275,309.5491057651349 492.70440251572325,308.77283089447883 497.73584905660374,309.20580346361737 502.7672955974843,308.92575249604715 507.7987421383648,309.10205909318114 512.8301886792453,310.03045652366177 517.8616352201258,309.8872867095478 522.8930817610062,309.03892108803916 527.9245283018868,308.5031514901757 532.9559748427673,309.8866131737496 537.9874213836478,309.54943345656767 543.0188679245283,309.1706447178687 548.0503144654087,308.363279942537 553.0817610062893,309.8306986519435 558.1132075471698,309.46675989189623 563.1446540880503,309.82290731542105 568.1761006289307,309.01806385558035 573.2075471698113,309.66614361500484 578.2389937106918,309.5699392625859 583.2704402515723,308.711404622888 588.3018867924528,309.8087854921959 593.3333333333333,309.78478386705353 598.3647798742138,310.10416709846464 603.3962264150944,308.54655227391504 608.4276729559748,309.6521770508273 613.4591194968554,309.4030596163445 618.4905660377358,310.2335562792877 623.5220125786163,309.123966169659 628.5534591194968,309.7227059378613 633.5849056603773,309.4956106521799 638.6163522012578,309.7676383710915 643.6477987421383,309.200597432459 648.6792452830189,308.81580736793495 653.7106918238993,309.53759303910476 658.7421383647799,309.0434157238147 663.7735849056604,309.2791394672867 668.805031446541,309.38877730623085 673.8364779874214,309.16626126269233 678.867924528302,310.23390449064897 683.8993710691824,308.73153651716405 688.930817610063,308.53096762902965 693.9622641509434,309.3714893500446 698.9937106918239,310.8606038783487 704.0251572327045,309.38988933964765 709.0566037735849,309.21406172540657 714.0880503144655,309.6535532883504 719.1194968553459,309.3899869146227 724.1509433962265,309.86976171442757 729.1823899371069,310.55813877084233 734.2138364779875,309.6960742161967 739.2452830188679,309.5327764435782 744.2767295597484,308.8454483973323 749.308176100629,309.8717867889893 754.3396226415094,308.2378112896596 759.37106918239,309.332199790247 764.4025157232704,308.36720055165466 769.433962264151,309.7480028149096 774.4654088050314,309.0721463987152 779.496855345912,309.34236785711835 784.5283018867925,309.5948904733912 789.559748427673,309.23670745560025 794.5911949685535,309.26196112853927 799.622641509434,309.8892246247478 804.6540880503145,309.7934915723429 809.6855345911949,309.30929147616604 814.7169811320755,308.6334035915809 819.748427672956,308.4056299129621 824.7798742138365,308.9572937266927 829.811320754717,308.88120044183324 834.8427672955975,309.7169074897545 839.874213836478,308.30103054689897 844.9056603773585,308.83222368942756 849.937106918239,309.54345840135727 854.9685534591194,309.4842079058405 860.0,308.1910815246157" fill="none" stroke="#9b3d2e" stroke-width="4"/>
  <polyline points="60.0,286.7670971724372 65.03144654088051,283.1509162366454 70.062893081761,279.7205577711377 75.09433962264151,276.4500169952433 80.12578616352201,273.3188419492767 85.15723270440252,270.3106029637568 90.18867924528303,267.4118652589853 95.22012578616352,264.61147618092934 100.25157232704403,261.90005675370725 105.28301886792454,259.26963022228995 110.31446540880503,256.71334500583697 115.34591194968553,254.22526429167237 120.37735849056604,251.80020366619897 125.40880503144653,249.43360402201932 130.44025157232704,247.1214308031065 135.47169811320754,244.86009320909588 140.50314465408806,242.64637872898743 145.53459119496856,240.47739959259548 150.56603773584908,238.3505485906894 155.59748427672957,236.2634623350965 160.62893081761007,234.2139904824421 165.66037735849056,232.20016977940924 170.69182389937106,230.22020203723832 175.72327044025155,228.27243533200868 180.75471698113208,226.35534787141012 185.78616352201257,224.46753407982453 190.81761006289307,222.6076925399339 195.8490566037736,220.7746154967995 200.88050314465409,218.96717968386696 205.91194968553458,217.18433827292802 210.9433962264151,215.4251137841833 215.9748427672956,213.6885918200534 221.00628930817612,211.9739155086981 226.03773584905662,210.28028056140388 231.0691823899371,180.57226842962484 236.1006289308176,154.33161503753553 241.13207547169813,142.34644236132144 246.16352201257862,142.34644236132144 251.19496855345912,142.34644236132144 256.2264150943396,142.34644236132144 261.25786163522014,142.34644236132144 266.28930817610063,142.34644236132144 271.3207547169811,142.34644236132144 276.3522012578616,142.34644236132144 281.3836477987421,142.34644236132144 286.41509433962267,142.34644236132144 291.4465408805031,142.34644236132144 296.47798742138366,142.34644236132144 301.50943396226415,142.34644236132144 306.54088050314465,142.34644236132144 311.57232704402514,142.34644236132144 316.60377358490564,142.34644236132144 321.63522012578613,142.34644236132144 326.66666666666663,142.34644236132144 331.6981132075472,142.34644236132144 336.7295597484277,142.34644236132144 341.76100628930817,142.34644236132144 346.79245283018867,142.34644236132144 351.82389937106916,142.34644236132144 356.85534591194966,142.34644236132144 361.8867924528302,142.34644236132144 366.9182389937107,142.34644236132144 371.9496855345912,142.34644236132144 376.9811320754717,142.34644236132144 382.01257861635224,142.34644236132144 387.04402515723274,142.34644236132144 392.07547169811323,142.34644236132144 397.1069182389937,142.34644236132144 402.1383647798742,142.34644236132144 407.1698113207547,142.34644236132144 412.2012578616352,142.34644236132144 417.2327044025157,142.34644236132144 422.26415094339626,142.34644236132144 427.29559748427675,142.34644236132144 432.32704402515725,142.34644236132144 437.35849056603774,142.34644236132144 442.38993710691824,142.34644236132144 447.42138364779873,142.34644236132144 452.45283018867923,142.34644236132144 457.4842767295597,142.34644236132144 462.5157232704403,142.34644236132144 467.54716981132077,142.34644236132144 472.57861635220127,142.34644236132144 477.61006289308176,142.34644236132144 482.64150943396226,142.34644236132144 487.67295597484275,142.34644236132144 492.70440251572325,142.34644236132144 497.73584905660374,142.34644236132144 502.7672955974843,142.34644236132144 507.7987421383648,142.34644236132144 512.8301886792453,142.34644236132144 517.8616352201258,142.34644236132144 522.8930817610062,142.34644236132144 527.9245283018868,142.34644236132144 532.9559748427673,142.34644236132144 537.9874213836478,142.34644236132144 543.0188679245283,142.34644236132144 548.0503144654087,142.34644236132144 553.0817610062893,142.34644236132144 558.1132075471698,142.34644236132144 563.1446540880503,142.34644236132144 568.1761006289307,142.34644236132144 573.2075471698113,142.34644236132144 578.2389937106918,142.34644236132144 583.2704402515723,142.34644236132144 588.3018867924528,142.34644236132144 593.3333333333333,142.34644236132144 598.3647798742138,142.34644236132144 603.3962264150944,142.34644236132144 608.4276729559748,142.34644236132144 613.4591194968554,142.34644236132144 618.4905660377358,142.34644236132144 623.5220125786163,142.34644236132144 628.5534591194968,142.34644236132144 633.5849056603773,142.34644236132144 638.6163522012578,142.34644236132144 643.6477987421383,142.34644236132144 648.6792452830189,142.34644236132144 653.7106918238993,142.34644236132144 658.7421383647799,142.34644236132144 663.7735849056604,142.34644236132144 668.805031446541,142.34644236132144 673.8364779874214,142.34644236132144 678.867924528302,142.34644236132144 683.8993710691824,142.34644236132144 688.930817610063,142.34644236132144 693.9622641509434,142.34644236132144 698.9937106918239,142.34644236132144 704.0251572327045,142.34644236132144 709.0566037735849,142.34644236132144 714.0880503144655,142.34644236132144 719.1194968553459,142.34644236132144 724.1509433962265,142.34644236132144 729.1823899371069,142.34644236132144 734.2138364779875,142.34644236132144 739.2452830188679,142.34644236132144 744.2767295597484,142.34644236132144 749.308176100629,142.34644236132144 754.3396226415094,142.34644236132144 759.37106918239,142.34644236132144 764.4025157232704,142.34644236132144 769.433962264151,142.34644236132144 774.4654088050314,142.34644236132144 779.496855345912,142.34644236132144 784.5283018867925,142.34644236132144 789.559748427673,142.34644236132144 794.5911949685535,142.34644236132144 799.622641509434,142.34644236132144 804.6540880503145,142.34644236132144 809.6855345911949,142.34644236132144 814.7169811320755,142.34644236132144 819.748427672956,142.34644236132144 824.7798742138365,142.34644236132144 829.811320754717,142.34644236132144 834.8427672955975,142.34644236132144 839.874213836478,142.34644236132144 844.9056603773585,142.34644236132144 849.937106918239,142.34644236132144 854.9685534591194,142.34644236132144 860.0,142.34644236132144" fill="none" stroke="#6d6875" stroke-width="2" stroke-dasharray="7 5"/>
  <text x="60" y="35" font-family="Arial" font-size="20" fill="#222">Collapse and recovery trace</text>
  <text x="248" y="65" font-family="Arial" font-size="14" fill="#6f2b20">volatility burst evidence</text>
  <text x="690" y="92" font-family="Arial" font-size="14" fill="#1f6f78">depth posterior mean</text>
  <text x="690" y="116" font-family="Arial" font-size="14" fill="#9b3d2e">capture share</text>
  <text x="690" y="140" font-family="Arial" font-size="14" fill="#6d6875">posterior spread</text>
</svg>
